mtllib materials.mtl
v 0.03500134 0.01557219 -0.01087523
v 0.01232135 -0.02318347 -0.01072976
v 0.01208287 -0.0227108 0.001240181
v 0.03476286 0.01604474 0.001094628
v -0.001536131 -0.03540182 -0.01062628
v -0.001774609 -0.03492916 0.001343608
v -0.01405728 -0.02131784 -0.01153459
v -0.01429582 -0.02084517 0.0004353411
v -0.03314233 0.01897681 -0.01236731
v -0.03338075 0.01944947 -0.0003974568
v -0.01332599 0.03175509 -0.01351251
v -0.01356453 0.03222764 -0.001542574
v 0.01700073 0.03023994 -0.01284843
v 0.01676226 0.03071249 -0.0008785259
v -0.0136916 0.005218625 -0.01252355
v 0.01466101 0.003528118 -0.01178906
v -0.01393014 0.005691171 -0.0005536191
v 0.01442248 0.004000783 0.0001808833
vn 0.8625407 -0.504625 0.03711004
vn 0.6609277 -0.7492308 0.04275215
vn -0.7476684 -0.6639757 0.01131968
vn -0.9037452 -0.4280695 -0.001103833
vn -0.5432041 0.8384508 -0.04392671
vn 0.05070302 0.9979757 -0.03838949
vn 0.6327677 0.7741334 -0.01795843
vn 0.02165028 -0.0395285 -0.9989839
vn -0.02592595 0.03973975 0.9988737
vn -0.03401893 -0.03675229 -0.9987452
vn 0.03401516 0.03675241 0.9987454
vn -0.0718848 0.04581094 0.9963604
vn 0.07188902 -0.04581064 -0.9963601
vn 0.02592566 -0.03974045 -0.9988737
vn -0.02164999 0.03952908 0.9989839
vt 0.02704382 0.06088525
vt 0.0253707 0.05671815
vt 0.02649162 0.0562949
vt 0.02816472 0.06046199
vt 0.007828838 0.01195592
vt 0.00724156 0.01020424
vt 0.008379674 0.009829702
vt 0.008966958 0.01158138
vt -0.1214709 -0.0982895
vt -0.1229715 -0.0994332
vt -0.12224 -0.1003822
vt -0.1207395 -0.09923847
vt -0.1547385 0.01346843
vt -0.1591817 0.01384701
vt -0.1593138 0.01265616
vt -0.1548706 0.01227758
vt -0.0002844728 -0.01152722
vt -0.0009063502 -0.00924992
vt -0.002047248 -0.009615907
vt -0.001425368 -0.01189319
vt 0.03192871 -0.09701685
vt 0.0308757 -0.09416805
vt 0.02975186 -0.09458347
vt 0.03080487 -0.09743226
vt 0.09425215 -0.1230539
vt 0.09271235 -0.1213047
vt 0.09177876 -0.1220557
vt 0.09331856 -0.1238049
vt -0.1594813 -0.02156524
vt -0.1610125 -0.02418821
vt -0.1586711 -0.0254415
vt -0.1572148 -0.02300186
vt 0.1549528 -0.02430909
vt 0.1545067 -0.02610193
vt 0.1563358 -0.02656449
vt 0.1586763 -0.02530955
vt 0.1572184 -0.02287092
vt -0.1608369 -0.02555809
vt -0.1605913 -0.02790596
vt -0.1561336 -0.02802591
vt -0.1584853 -0.026792
vt 0.1561657 -0.02808199
vt 0.1606234 -0.02796203
vt 0.160869 -0.02561417
vt 0.1585174 -0.02684808
vt 0.1594596 -0.01964766
vt 0.1573119 -0.01874338
vt 0.1549553 -0.02256575
vt 0.1572075 -0.02110672
vt -0.1549914 -0.02261705
vt -0.1573479 -0.01879467
vt -0.1594957 -0.01969895
vt -0.1572435 -0.02115801
vt -0.15868 -0.02531576
vt -0.1563395 -0.0265707
vt -0.1545103 -0.02610815
vt -0.1549564 -0.02431531
vt -0.157222 -0.02287714
vt 0.15867 -0.02543968
vt 0.1610114 -0.02418639
vt 0.1594803 -0.02156341
vt 0.1572137 -0.02300004
o group1469751056
g mesh1469751056
usemtl mat12
f 4/4/1 3/3/1 2/2/1 1/1/1
f 8/16/4 10/15/4 9/14/4 7/13/4
f 10/20/5 12/19/5 11/18/5 9/17/5
f 12/24/6 14/23/6 13/22/6 11/21/6
f 14/28/7 4/27/7 1/26/7 13/25/7
f 16/32/8 15/31/8 11/30/8 13/29/8
f 15/41/10 7/40/10 9/39/10 11/38/10
f 17/45/11 12/44/11 10/43/11 8/42/11
f 18/49/12 3/48/12 4/47/12 14/46/12
f 16/53/13 13/52/13 1/51/13 2/50/13
f 18/62/15 14/61/15 12/60/15 17/59/15
usemtl mat18
f 3/8/2 6/7/2 5/6/2 2/5/2
f 6/12/3 8/11/3 7/10/3 5/9/3
f 18/37/9 17/36/9 8/35/9 6/34/9 3/33/9
f 16/58/14 2/57/14 5/56/14 7/55/14 15/54/14
